{
	"asset":{
		"generator":"Khronos glTF Blender I/O v3.6.27",
		"version":"2.0"
	},
	"scene":0,
	"scenes":[
		{
			"name":"Scene",
			"nodes":[
				0
			]
		}
	],
	"nodes":[
		{
			"mesh":0,
			"name":"logo",
			"rotation":[
				0.70710688829422,
				0,
				0,
				0.7071066498756409
			],
			"scale":[
				2.5,
				2.3061022758483887,
				2.5
			],
			"translation":[
				1.2375314327073283e-05,
				1.81972991413204e-05,
				4.9857903832162265e-06
			]
		}
	],
	"materials":[
		{
			"doubleSided":true,
			"name":"gold",
			"normalTexture":{
				"index":0
			},
			"pbrMetallicRoughness":{
				"baseColorTexture":{
					"index":1
				},
				"metallicRoughnessTexture":{
					"index":2
				}
			}
		}
	],
	"meshes":[
		{
			"name":"Plane.001",
			"primitives":[
				{
					"attributes":{
						"POSITION":0,
						"NORMAL":1,
						"TEXCOORD_0":2
					},
					"indices":3,
					"material":0
				}
			]
		}
	],
	"textures":[
		{
			"sampler":0,
			"source":0
		},
		{
			"sampler":0,
			"source":1
		},
		{
			"sampler":0,
			"source":2
		}
	],
	"images":[
		{
			"mimeType":"image/png",
			"name":"dirtymetal",
			"uri":"texture/dirtymetal.png"
		},
		{
			"mimeType":"image/png",
			"name":"difiuse",
			"uri":"texture/difiuse.png"
		},
		{
			"mimeType":"image/png",
			"name":"metallic-roughness",
			"uri":"texture/metallic-roughness.png"
		}
	],
	"accessors":[
		{
			"bufferView":0,
			"componentType":5126,
			"count":1003088,
			"max":[
				0.9902243614196777,
				0.09322968870401382,
				0.7719141244888306
			],
			"min":[
				-0.9199323654174805,
				-0.06030843034386635,
				-1.0789568424224854
			],
			"type":"VEC3"
		},
		{
			"bufferView":1,
			"componentType":5126,
			"count":1003088,
			"type":"VEC3"
		},
		{
			"bufferView":2,
			"componentType":5126,
			"count":1003088,
			"type":"VEC2"
		},
		{
			"bufferView":3,
			"componentType":5125,
			"count":2166450,
			"type":"SCALAR"
		}
	],
	"bufferViews":[
		{
			"buffer":0,
			"byteLength":12037056,
			"byteOffset":0,
			"target":34962
		},
		{
			"buffer":0,
			"byteLength":12037056,
			"byteOffset":12037056,
			"target":34962
		},
		{
			"buffer":0,
			"byteLength":8024704,
			"byteOffset":24074112,
			"target":34962
		},
		{
			"buffer":0,
			"byteLength":8665800,
			"byteOffset":32098816,
			"target":34963
		}
	],
	"samplers":[
		{
			"magFilter":9729,
			"minFilter":9987
		}
	],
	"buffers":[
		{
			"byteLength":40764616,
			"uri":"logo.bin"
		}
	]
}
